<!-- Generator: Adobe Illustrator 19.0.1, SVG Export Plug-In  -->
<svg version="1.0"
	 xmlns="http://www.w3.org/2000/svg" xmlns:xlink="http://www.w3.org/1999/xlink" xmlns:a="http://ns.adobe.com/AdobeSVGViewerExtensions/3.0/"
	 x="0px" y="0px" width="73.5px" height="92.9px" viewBox="0 0 73.5 92.9" overflow="scroll" enable-background="new 0 0 73.5 92.9"
	 xml:space="preserve">
<defs>
</defs>
<path fill="#F3797A" d="M15.6,58c0.2,0.7,8.1,2.1,9.8,1.7c1.6-0.5,1.9-0.4,1.9-0.8c0-0.4-0.6-7.4,0-11.9c0.1-1.1-0.3-1.4-0.5-1.2
	L15.6,58z"/>
<path opacity="0.2" fill="#010101" d="M23.9,51.3c-0.5-0.2-2.8,3.4-3.3,4.8c-0.5,1.4-0.7,2,0,2.3c0.7,0.2,1.4-1.5,1.9-2.5
	C23,54.7,24.3,51.4,23.9,51.3z"/>
<path opacity="0.2" fill="#010101" d="M24.7,58c0-0.2-2.9-0.2-3.9-0.1c-1,0.1-1.4,0.2-1.4,0.4c0,0.2,1.3,0.1,2.1,0.1
	C22.4,58.3,24.7,58.1,24.7,58z"/>
<path fill="#F3797A" d="M43.3,64.1c-0.1,1-0.4,5.3,0.2,5.8c0.6,0.4,13.7-8.7,14.7-9.5c1-0.9,0.9-4.8-0.3-4.3
	c-3,1.2-12.7,4.9-13.8,6.1C43.4,62.9,43.3,63.7,43.3,64.1z"/>
<path opacity="0.2" fill="#FFFFFF" d="M44.9,65.6c0,0.9,2,0.6,3.2-0.2c1.2-0.8,7.4-4.3,7.4-4.9c0-0.6,1.1-2.3,0.4-2.3
	c-0.6,0-2.2,0.7-2.5,1.3c-0.3,0.6-2.7,1.5-3.8,2.2C48.4,62.3,44.9,64.8,44.9,65.6z"/>
<path fill="#F3797A" d="M54.2,63.8"/>
<path fill="#F3797A" d="M57.2,56.3c0.9-0.4,2.2-2.5,5-2.4s9.3,4.1,9.9,3.7s1.3,0.3,1.3,0.4s-0.3,0.7-0.6,1.2s-1.1,2.1-1.8,2.4
	c-0.7,0.2-1.2,1.2-1.9,1.3c-0.7,0.1-1.2-0.3-1.6-0.2c-0.7,0.3-1.3-0.6-1.5-0.6c-0.2,0-1.9,0-2.2-0.1c-0.3-0.1-0.9,0.4-1.7-0.3
	c-0.3-0.3-1.5-0.8-2.5-1c-1.1-0.1-1.2-0.4-1.4-0.4c-0.2,0-0.8,0.1-1.2,0.5C56.5,61.2,56.3,56.7,57.2,56.3z"/>
<path opacity="0.1" fill="#FFFFFF" d="M57.1,56.5c-0.1,0.6,0.5,1.4,0.7,1.6c0.2,0.3,0.9-0.1,1,0.2s0.2,0.8,0.3,0.8s0.6-0.8,0.3-1.6
	c-0.3-0.8-0.4-1.3-0.2-1.6c0.2-0.3,2.5-1.5,2.9-1.4c0.4,0,0.4-0.3,0.3-0.4c-0.1-0.1-2.1-0.2-3.1,0.4C58.4,55.1,57.2,56.2,57.1,56.5z
	"/>
<path opacity="0.1" fill="#FFFFFF" d="M57.7,56.4c-0.4,0.5,0.6,2.3,0.9,1c0.4-1.3,0.1-1.6,0.4-1.9s-0.7-0.2-1.7,0.7
	C57.2,56.4,57.7,56.4,57.7,56.4z"/>
<path opacity="0.1" fill="#010101" d="M56.9,57.5c-0.1,1,0.2,3,0.8,2.9c0.6-0.1,0.2-0.2,0.5-0.1c0.3,0.1,2.6,0.9,2.5,0.6
	c-0.1-0.3-0.5-0.5-0.4-0.8c0.1-0.3,0.1-0.8,0.2-0.7c0.2,0.2,0.6,0.7,0.6,0.4c0-0.2-0.7-1-0.2-1c0.4,0,0.8,0.3,0.7,0.1
	c0-0.3-0.3-0.3-0.1-0.6c0.3-0.3,0.7-1.6,0.6-1.6c-0.1,0,0.2-1.9,0.1-2.1c-0.1-0.2-0.7,0.1-0.9,0.3c-0.2,0.1-2.1,0.7-1.9,1
	c0.2,0.3,1.8,0.7,1.7,0.9c-0.1,0.2-0.3,0.8-0.4,0.7c-0.1-0.1-1.2-0.1-0.9,0.1c0.3,0.2,0.9,0,0.7,0.3s-1.1,0.8-1.1,1.5
	c0,0.7,0,0.6-0.2,0.3c-0.2-0.3-0.5-0.5-0.5-0.3c-0.1,0.3-0.1,0.5-0.2,0.2c-0.1-0.3-0.3-0.7-0.3-0.2c0,0.5-0.3,0.9-0.3,0.2
	c0-0.7-0.2-1.8-0.3-1.2c0,0.6,0.1,1.5,0,0.8S57,57.2,56.9,57.5"/>
<path opacity="5.000000e-002" fill="#010101" d="M67,61.5c-0.2,0.1-1.1,0.5-1.2,0.3c-0.1-0.3,0.6-2.3,0.7-2.6
	c0.1-0.3-0.5,0.1-0.7,0.6c-0.2,0.5-1,1-1.3,0.9c-0.3-0.1-0.9-0.8-1-0.4c-0.1,0.4,0.1,0.9-0.2,0.7c-0.3-0.2-0.4,0-0.6,0.2
	c-0.2,0.1-0.4,0.2-0.6,0c-0.3-0.1-0.9-0.3-1-0.1c0,0,0.1,0.2,0.3,0.3c0.3,0.2,0.6,0.3,0.7,0.4c0,0,0.1,0.1,0.1,0.1
	c0.3,0.2,0.7,0.3,0.9,0.2c0.6-0.1,0.4-0.1,0.8,0.1c0.5,0,1.7,0,2,0c0.1,0,0.2-0.1,0.2-0.1c0-0.1,0.3,0.4,0.6,0.6
	c0.1,0.1,0.2,0.1,0.4,0.1c0.2-0.1,0.5-0.2,0.7-0.1l0,0c0.2,0,0.3,0.1,0.5,0.1c0,0,0,0,0-0.1C68.1,62.5,67.2,61.4,67,61.5z"/>
<path opacity="0.1" fill="#010101" d="M67,61.5c-0.2,0.1-1.1,0.5-1.2,0.3c-0.1-0.3,0.6-2.3,0.7-2.6c0.1-0.3-0.5,0.1-0.7,0.6
	c-0.2,0.5-1,1-1.3,0.9c-0.3-0.1-0.9-0.8-1-0.4c-0.1,0.4,0.1,0.9-0.2,0.7c-0.3-0.2-0.4,0-0.6,0.2c-0.2,0.1-0.4,0.2-0.6,0
	c-0.3-0.1-0.9-0.3-1-0.1c0,0,0.1,0.2,0.3,0.3c0.3,0.2,0.6,0.3,0.7,0.4c0,0,0.1,0.1,0.1,0.1c0.3,0.2,0.7,0.3,0.9,0.3
	c0.6-0.1,0.4-0.2,0.8,0c0.5,0,1.7,0,2,0c0.1,0,0.1,0.2,0.1,0.1c0-0.1,0.4,0.1,0.6,0.4c0.1,0.1,0.2,0.1,0.4,0.1
	c0.2-0.1,0.5-0.2,0.7-0.1l0,0c0.2,0,0.3,0.1,0.5,0.1c0,0,0,0,0-0.1C68.1,62.5,67.2,61.4,67,61.5z"/>
<path opacity="0.1" fill="#010101" d="M68.4,59.4c-0.4,0.4-0.5,0.1-0.6,0.8c-0.2,0.7,0.4,0.4,0.4,0.8c0,0.4-0.7,0.9-0.3,1.2
	c0.4,0.3,0.7,0.2,0.7-0.2c0-0.4,0-1.5,0.3-1.5s-0.2,0.6,0,0.6c0.2,0,0.2-0.9,0.7-1.3c0.4-0.4,0.5-0.8,0.8-0.8
	C70.6,58.9,68.5,59.3,68.4,59.4z"/>
<path opacity="5.000000e-002" fill="#010101" d="M62.7,59.9c-0.1,0.9,0.8,1.9,1.5,1.7c0.7-0.1,2-2,2.1-2.4c0.2-0.3,0.4-0.9,0.8-0.8
	c0.5,0.1,0.9,0.1,0.9,0.7c0,0.6-0.2,0.8-0.3,1.1c-0.3,1.1-0.3,1-0.4,1.2c-0.1,0.3,0.8,1.3,1,0.9c0.2-0.4,0.3-1.9,0.4-1.7
	c0.1,0.2-0.1,0.9,0.2,0.8c0.3-0.1,0.5-1.6,0.6-1.8c0.2-0.2,1.4-0.8,1.5-0.5c0.1,0.3,0.6-0.4,0.5-0.7c-0.1-0.3-2.4-1.8-3.2-2
	s-5.5-1.7-6-1.7s-3.2,0.8-2.9,1.2c0.3,0.5,1.8,0.9,2.2,1s0.5-0.4,0.8-0.6c0.4-0.3,1-0.4,1.2,0.1c0.2,0.5-0.1,0.8-0.5,1.5
	S62.7,59.3,62.7,59.9z"/>
<path opacity="0.1" fill="#010101" d="M63.7,59c-0.1,0.9,0.6,1.3,1.3,1.5c0.8,0.2,1.2-0.9,1.4-1.2c0.2-0.3,0.4-0.9,0.8-0.8
	c0.5,0.1,0.9,0.1,0.9,0.7c0,0.6-0.2,0.8-0.3,1.1c-0.3,1.1-0.3,1-0.4,1.2c-0.1,0.3,0.8,1.3,1,0.9c0.2-0.4,0.3-1.9,0.4-1.7
	c0.1,0.2-0.1,0.9,0.2,0.8c0.3-0.1,0.5-1.6,0.6-1.8c0.2-0.2,1.4-0.8,1.5-0.5c0.1,0.3,0.6-0.4,0.5-0.7c-0.1-0.3-3-0.7-3.7-0.9
	s-2.6-1.4-3.1-1.4c-0.5,0-2.5-1.1-2.2-0.6c0.3,0.5-1.3,1.4-0.9,1.4s0.5-0.4,0.8-0.6c0.4-0.3,1-0.4,1.2,0.1c0.2,0.5-0.1,0.8-0.5,1.5
	S63.8,58.4,63.7,59z"/>
<path fill="#F3797A" d="M62.4,56.4c-0.8,1.3-0.7,1.6-0.6,2c0.1,0.3,1,1.2,1,0.5c0.1-0.6,1.5-2.5,0.8-2.8
	C63,55.7,62.5,56.2,62.4,56.4z"/>
<path fill="#F3797A" d="M66.6,58.8c-0.5,0.9-1.4,2.7-0.7,2.8c0.6,0.1,1.6-0.4,1.9-1.3c0.3-0.9,0.7-1.7,0-1.9
	C67.2,58.3,66.8,58.4,66.6,58.8z"/>
<path fill="#F3797A" d="M70,59.6c-0.5,0.7-0.7,0.6-0.9,1.6c-0.2,1,1.8,0.4,2.1,0.1s2.2-2.9,2-3.3c-0.2-0.4-0.8-0.9-1.2-0.3
	c-0.4,0.6-0.5,1.1-0.8,1.1C71,58.9,70.5,58.9,70,59.6z"/>
<path fill="#374B87" d="M62.8,56.5c-0.1,0.3-0.3,0.6-0.1,0.7c0.2,0.2,0.6,0.3,0.7,0.1c0.3-0.4,0.5-1.3,0.2-1.4
	C63.4,55.6,63,56,62.8,56.5z"/>
<path fill="#374B87" d="M67,59c-0.1,0.4-0.3,1,0.1,1.1c0.4,0.1,0.7-0.3,0.8-0.8c0.1-0.5,0.2-1.2-0.1-1.3C67.5,58,67.1,58.7,67,59z"
	/>
<path fill="#374B87" d="M70.7,59.8c-0.1,0.2-0.3,0.9,0.1,0.9s0.6-0.4,0.6-0.7c0.1-0.4,0.2-0.9,0-1C71,58.9,70.7,59.7,70.7,59.8z"/>
<path fill="#374B87" d="M72.6,59c-0.1,0.2-0.5,0.5-0.3,0.6c0.1,0.1,0.2,0.1,0.2,0c0-0.1,0.7-1,0.8-1.1C73.2,58.4,72.6,58.8,72.6,59z
	"/>
<path fill="#374B87" d="M73.1,58.2c-0.1,0.2-0.1,0.2,0,0.3c0.1,0.1,0,0.3,0,0.2s0.4-0.8,0.4-0.9C73.5,57.7,73.1,58.1,73.1,58.2z"/>
<path fill="#B45A5A" d="M14.7,62c0.1,1.4,0.5,3.6,0.9,5.8c0.6,3.4,1.3,7,1.1,8.4c-0.3,2.2-3,13.2-2.6,14.6c0.4,1.3,21,2.8,25.3,1.9
	s5.1-0.8,5.1-1.6s-2.8-15.2,0-26.5c0.5-2.2-1-3.6-1.6-3.2c-0.6,0.4-22.5-3.4-23.1-2.7S14.6,61.4,14.7,62z"/>
<path opacity="0.2" fill="#FFFFFF" d="M39.4,92.4c0.4-0.1,0.8-0.2,1.1-0.2c0.4-1.1,0.7-3,0.7-6.9c0-5-12.8-0.2-14.4,1.4
	c-1.7,1.7-4,3.4-3.7,4.8C29.4,92.4,36.9,92.9,39.4,92.4z"/>
<path fill="#F3797A" d="M14.7,61.8c0.1,1.4,0.5,3.6,0.9,5.8c0.6,3.4,1.3,7,1.1,8.4c-0.3,2.2-2.6,12-2.6,13.4c0,1.4,20.9,4,25.3,3.1
	c4.4-0.9,5.1-0.8,5.1-1.6s-2.9-16.1,0-26.5c0.6-2.1-0.7-2.8-1.3-2.4c-0.6,0.4-23.5-4.3-24.1-3.5S14.6,61.2,14.7,61.8z"/>
<path opacity="5.000000e-002" d="M18.3,85.1H15c0,0-0.1,0-0.1,0c-0.4,2-0.7,3.7-0.7,4.3c0,0.5,2.6,1.1,6.1,1.7
	c0.1-0.2,0.2-0.5,0.2-0.8v-3.4C20.3,85.9,19.4,85.1,18.3,85.1z"/>
<path opacity="0.2" fill="#FFFFFF" d="M44,87.2c-0.1-0.9-0.2-1.9-0.3-3c-3.2-4.2-25.6-2.8-25.3-1.7c0.1,0.6-0.2,5.5,0.5,8.4
	c6.4,1.2,17.5,2.2,20.6,1.6c2-0.4,3.2-0.6,4-0.8C43.7,90.6,43.9,89.2,44,87.2z"/>
<path opacity="0.1" fill="#FFFFFF" d="M18.1,62c0.2,0.8-0.4,8.8,1.3,10.5c0.3,0.3,1.1,4.6,11.9,4.6c6.4,0,7.3-0.8,8.8-2.3
	c1.2-1.2,3.8-0.6,3.8-9.9C43.8,59.3,17.8,60.9,18.1,62z"/>
<circle opacity="0.1" fill="#FFFFFF" cx="37.6" cy="89.8" r="2"/>
<path opacity="0.1" fill="#FFFFFF" d="M19.6,62.6c1.7,6.3,0,8,1.4,9.5c0.3,0.3,0.7,4.2,9.9,4.2c5.5,0,6.2-0.7,7.5-2.1
	c1-1.1,2.5-0.4,2.5-8.8C40.9,60.4,19.4,61.6,19.6,62.6z"/>
<path opacity="0.2" fill="#FFFFFF" d="M26.5,66.3c-2,2-4.6,3.8-3.4,5.3c0.3,0.3,0.6,4.2,8.8,4.2c4.9,0,5.6-0.7,6.7-2.1
	c0.9-1.1,2.2-0.4,2.2-8.8C40.9,59.9,28.1,64.7,26.5,66.3z"/>
<path opacity="0.2" fill="#FFFFFF" d="M30.3,68.1c-1,1-2.3,2-1.7,2.8c0.1,0.2,0.3,2.2,4.4,2.2c2.5,0,2.8-0.4,3.4-1.1
	c0.5-0.6,1.1-0.2,1.1-4.6C37.6,64.8,31.1,67.3,30.3,68.1z"/>
<ellipse opacity="0.2" fill="#FFFFFF" cx="23.8" cy="65.1" rx="1.1" ry="1.1"/>
<path opacity="0.2" fill="#010101" d="M15.8,68c0-1.2,1.5-4.3,1.7-3.6c0.2,0.8,0.4,6.3,2.1,8.7c1.8,2.4,6.6,3.8,9.2,4.2
	c2.6,0.4,8.5,1.4,14.5-4.6c-0.5,2,1.1,7-4.8,6.3c-0.5-0.1-5.3-0.6-6.9-0.7c-1.6-0.1-7-0.7-9.1-1.4s-5.5-1.9-5.8-2.2
	C16.7,74.6,15.8,68.4,15.8,68z"/>
<path opacity="0.1" fill="#010101" d="M15.6,68c0-1.2,0.6-2.4,0.6-1.6s0.1,4.5,1.9,6.9c1.8,2.4,6.6,3.6,9.3,4
	c2.6,0.4,13.8,0.3,13.8,0.9c0,0.6-2.3,0.8-2.8,0.7c-0.5,0-5.3-0.6-6.9-0.7c-1.6-0.1-7-0.7-9.1-1.4s-5.5-1.9-5.8-2.2
	C16.5,74.6,15.6,68.4,15.6,68z"/>
<path fill="#F3797A" d="M40.2,42.8c2.5,1.5,9,7.7,9,10c0,2.3,0.1,7.2-4.5,7.2s-1.4-0.3-1.4-1.3s-0.5-2.9-5.1-2.9s-4.8,1.1-4.8-2
	S39.5,42.4,40.2,42.8z"/>
<path opacity="0.1" fill="#FFFFFF" d="M40.4,44.6c0.9,0,4.5,2.2,5.9,3.1c1.3,0.8,2.4,3.2,2.4,4.8s1.1,5.8-4.2,5.8
	c-0.7,0-0.4-1.9-0.5-2.9c-0.2,3.4-1.7,0.7-4-0.3c-2.3-0.9-3.5-1.3-3.5-3.1c0-1.8,1.4-2.3,2-2.3c0.6,0,4.5,1.6,4.5,2.8
	c0-1.3-3.4-3.8-3.3-6.6C39.8,44.6,40.4,44.6,40.4,44.6z"/>
<path opacity="0.2" fill="#FFFFFF" d="M37.9,52.2c0,0.9-0.3,0.9,2.3,1.7c2.6,0.7,2.7,1.9,3.2,1.9s-0.3-2.1-1.9-3.1
	C39.9,51.6,37.9,50.7,37.9,52.2z"/>
<path opacity="0.2" fill="#FFFFFF" d="M41.4,47.1c-0.4,0-0.3,1.8,0.2,2.2s2.8,3.9,2.9,5.9c0,2,1.1,2,1.5,2s0.5-1,1.4-1.8
	c0.8-0.8,1.3-1.5,1.3-2.7s-1.8-3-2.6-3.5C45.6,48.8,41.7,47.1,41.4,47.1z"/>
<path opacity="0.2" fill="#FFFFFF" d="M45.6,51.1c-0.2,0-0.1,0.7,0.1,0.9c0.2,0.2,0.8,1.5,0.9,2.3c0,0.8-0.4,0.8-0.2,0.8
	s0.5-0.4,0.8-0.7c0.3-0.3,0.4-0.6,0.4-1.1c0-0.5-0.9-1.2-1.1-1.4C46.1,51.8,45.7,51.1,45.6,51.1z"/>
<path opacity="0.1" fill="#010101" d="M49,52.2c0.9,1.5,1.5,4.5,0.4,6.8c-1.6,3.1-5.5,4.8-5.3,5.2c-0.4-0.5-0.7-2.1-1.2-2
	c-0.5,0.1-2.1,3.4-4.7,4.3c-2.5,0.8-6.5,0.7-10.9-0.9c-4.4-1.7-8.5-2.6-9-2.7c-0.6-0.1,1.8-4.3,2.2-4.2c0.4,0.1,4.7,0.1,5.9-0.6
	c3.3-1.7,3.4-5.8,5.6-5.3s12.4,2.8,11.5,7.1c-0.3,1.2,0.5,0.2,0.7,0.1c0,0,5-3.7,5-6.3C49.2,53.2,48.8,51.9,49,52.2z"/>
<path fill="#374B87" d="M49,51.8c0.9,1.5,1.5,4.5,0.4,6.8c-1.6,3.1-5.5,4.8-5.3,5.2c-0.4-0.5-0.7-2.1-1.2-2
	c-0.5,0.1-2.1,3.4-4.7,4.3c-2.5,0.8-6.5,0.7-10.9-0.9s-8.5-2.6-9-2.7c-0.6-0.1,1.8-4.3,2.2-4.2c0.4,0.1,4.7,0.1,5.9-0.6
	c3.3-1.7,3.4-5.8,5.6-5.3s12.4,2.8,11.5,7.1c-0.3,1.2,0.5,0.2,0.7,0.1c0,0,5-3.7,5-6.3C49.2,52.8,48.8,51.5,49,51.8z"/>
<path opacity="0.1" fill="#010101" d="M43.4,60.7c-0.3,0.5-0.2,0.5,0,1c0.2,0.6,1,2.4,1,1.6C44.4,62.6,43.5,60.4,43.4,60.7z"/>
<path opacity="0.1" fill="#010101" d="M44.1,59.1c0,0.1-0.2,0.4,0,0.4c0.2,0,2.2-1.1,2.1-1.2C46.1,58.3,44.1,59,44.1,59.1z"/>
<path opacity="0.1" fill="#010101" d="M19.9,58.7c-0.3,0.5-1.8,3-1.6,3.1c0.2,0.1,2.2,0.5,3.1,0.7s3.2,1.2,2.5,0.5
	c-0.6-0.7-3.3-2.3-3.2-2.7C20.9,59.1,20.1,58.4,19.9,58.7z"/>
<path opacity="0.1" fill="#010101" d="M32.2,58c-0.8,0.8-1.1,2.1-0.9,3.3c0.3,1.2,1.6,3.6,3.9,3.9c2.3,0.3,4-0.5,4.7-1.1
	s-3.2,1-4.7-0.2c-1-0.7-2-3.1-0.4-5C35.8,57.7,32.4,57.8,32.2,58z"/>
<path opacity="0.1" fill="#010101" d="M44.4,61.6c0.1,0.8,0.1,1.4,0.6,1c0.5-0.3,1.9-1.4,2.4-1.9c0.5-0.6-0.2,0.1-1.4,0.3
	C44.8,61.2,44.4,61.2,44.4,61.6z"/>
<path opacity="0.1" fill="#010101" d="M24,38.6c2.3,2.1,2.4,7.8-1.9,16.8S13.6,74,13.7,74.3c0.1,0.3,7,2.7,10.3,3.4
	c3.3,0.7,15.7,1.2,16.1,1s3.4-1.6,3.8-2.7c0.5-1.4,1.7-1.7,3-2.4c0.5-0.3,1.6-0.9,3-1.5c1.1-0.5,1.5-2.1,1.7-2.2
	c0.2,0,1.4,0.6,1.2,1.7c-0.2,1.4-1.4,2.9-2.7,3.3c-0.2,0.1-0.4,0.7-0.7,0.8c-0.3,0.1,5.5,0.7,6.2,1.4c0.6,0.5,1.4,1.6,0.3,2.8
	c-0.5,0.6-1.2,0-1.2,0.2c0,0.2,1.3,0.3,1.3,1.2c0.1,1-0.4,1.8-1.3,1.9c-0.9,0-3.7-0.7-3.6-0.5c0.1,0.2,3,1.2,3.2,1.6
	c0.2,0.6,0.2,1.5-0.5,1.9c-1,0.6-2-0.2-2.1,0.2c-0.3,1-1.1,1.6-3.2,1.7c-2.2,0.1-2.1,0.2-2.5,0.1c-0.4-0.1-3.8-0.6-4.5-1
	c-0.7-0.5-3.1-0.5-4.4-0.7c-1.3-0.2-12,0.9-14.7,0.9c-2.7,0.1-10.9-0.9-14-1.9c-3.1-1-5.1-0.1-6-0.5c-0.9-0.5-2.7-2.8-2.1-10
	C0.8,67.9,6,53.8,6.3,52.8c0.3-1,3.9-10.3,6.5-13.2C15.3,36.7,20.9,35.8,24,38.6z"/>
<path fill="#F3797A" d="M24,38.1c2.3,2.1,2.4,7.8-1.9,16.8c-4.3,8.9-8.5,18.6-8.3,18.9c0.1,0.3,7,2.7,10.3,3.4
	c3.3,0.7,15.7,1.2,16.1,1c0.4-0.1,3.4-1.6,3.8-2.7c0.5-1.4,1.7-1.7,3-2.4c0.5-0.3,1.6-0.9,3-1.5c1.1-0.5,1.5-2.1,1.7-2.2
	c0.2,0,1.4,0.6,1.2,1.7c-0.2,1.4-1.4,2.9-2.7,3.3c-0.2,0.1-0.4,0.7-0.7,0.8c-0.3,0.1,5.5,0.7,6.2,1.4c0.6,0.5,1.4,1.6,0.3,2.8
	c-0.5,0.6-1.2,0-1.2,0.2c0,0.2,1.3,0.3,1.3,1.2c0.1,1-0.4,1.8-1.3,1.9c-0.9,0-3.7-0.7-3.6-0.5c0.1,0.2,3,1.2,3.2,1.6
	c0.2,0.6,0.2,1.5-0.5,1.9c-1,0.6-2-0.2-2.1,0.2c-0.3,1-1.1,1.6-3.2,1.7c-2.2,0.1-2.1,0.2-2.5,0.1c-0.4-0.1-3.8-0.6-4.5-1
	c-0.7-0.5-3.1-0.5-4.4-0.7c-1.3-0.2-12,0.9-14.7,0.9c-2.7,0.1-10.9-0.9-14-1.9c-3.1-1-5.1-0.3-6-0.8c-0.9-0.5-2.7-2.5-2.1-9.7
	C0.8,67.4,6,53.3,6.2,52.3c0.3-1,3.9-10.3,6.5-13.2C15.3,36.2,20.8,35.3,24,38.1z"/>
<path opacity="0.27" fill="#FFFFFF" d="M48.9,76.3c-0.6,0.7-0.8,0.8,0.1,1.6c0.9,0.8-0.8,0.7-0.7,1.9c0,1.2,1.6,1.1,2.2,1
	c0.6,0,1.2,0.7,1.2,1.1c0,0.3,2.4,0.4,3,0.4c0.6,0,0.7-0.5,0.7-0.9c0-0.4-0.6-1.1-2.1-1c-1.5,0.1-2.3-0.3-2.4-0.8
	c0-0.5-0.8-0.6-0.8-1.1c0-0.5,0.6-0.1,1.1-0.1c0.5,0,1.3,0.7,2.4,0.7c1.1-0.1,1.9-0.2,1.9-0.9c0-0.7-1.4-1.5-2.5-1.4
	C51.6,76.6,49.3,75.8,48.9,76.3z"/>
<path opacity="0.27" fill="#FFFFFF" d="M47.8,82.9c0.1,1,1.6,1.6,2.1,1.5c0.5,0,1.2,0.7,2.1,0.7c0.9,0,1-0.5,1-0.7
	c0-0.3-0.9-1.3-2-1.3c-1.1,0.1-1.1-1.3-2.1-1.2C47.9,81.9,47.8,82.7,47.8,82.9z"/>
<circle opacity="0.27" fill="#FFFFFF" cx="47.7" cy="85.8" r="0.7"/>
<path opacity="0.27" fill="#FFFFFF" d="M51.8,70.4c-0.7,0.7-0.6,1.1-1.1,1.5c-0.5,0.5-1,1.6-1.7,1.6c-0.7,0,0-0.7-1.6,0
	c-1.6,0.7-1.3,1-1.3,1.1c0,0.4,0.5-0.3,1.2-0.3c1.2-0.1,2,0.1,2-0.1c0.1-0.6,0.2-0.4,0.4-0.5c0.1,0,1.5-0.8,1.7-1.1
	C51.7,72,52.1,70,51.8,70.4z"/>
<path opacity="0.1" fill="#010101" d="M46.9,87.5c-0.3-0.7-1.5-0.6-1.9-0.3C44.6,87.6,47,87.8,46.9,87.5z"/>
<path opacity="0.1" fill="#010101" d="M41.8,83.4c0,0.5,0.3,0.9,1.2,0.8c0.9-0.1,1-0.4,1-0.7C43.9,83.3,41.8,82.9,41.8,83.4z"/>
<path opacity="0.1" fill="#010101" d="M42.7,81.9c0,0.4,1.6,1,2.1,1c0.6,0,2.3-0.2,2.2-1.1c0-0.9-1.6-0.6-2-0.6
	C44.6,81.2,42.6,81.3,42.7,81.9z"/>
<path opacity="0.1" fill="#010101" d="M45,74.9c-0.1-0.8,0.4-0.1,0.4,0.4c0,0.5,2-0.6,2.1,0.7c0.1,0.9-0.7,1.1-0.7,1.7
	c0,0.2,0.8,0.5,0.9,1.5c0,0.5-0.7,1-0.7,1.4c0,0.6,0.4,0.9,0.4,1.4c0,0.7-2.1,1.4-2.9,1.3c-1-0.1-4-1.2-4.1-3.4
	c-0.1-1.6,1.1-0.7,1.1-1.2s-0.8,0-0.8-0.3C40.6,78.1,45,75.7,45,74.9z"/>
<path opacity="0.1" fill="#010101" d="M44.7,80.7c0.3,0,1-0.5,1.5-0.5c0.4,0,1.2-0.4,1.2-1.3c0-0.9-0.9-0.7-1.1-0.5
	c-0.2,0.2-0.8,0-1.2,0.1c-0.4,0,0.6-1.2,1.1-1.2c0.5,0,1-0.5,1-1c0-0.5,0.1-1-1-0.9c-1.1,0.1-2.6,1.3-2.6,2c0,0.6,0.7,0.1,0.8,0.7
	c0,0.6-0.1,0.4-0.4,0.7C43.6,79,44.1,80,43.3,80c-0.8,0-2,0.6-2,0.9C41.3,81.2,44.5,80.7,44.7,80.7z"/>
<path opacity="0.1" fill="#FFFFFF" d="M7.2,79.8c0.4,1.5,18.7,5.6,22.4,5.6c3.7,0,10.6,1.1,10.4-3.7C39.9,78.9,6.8,78.4,7.2,79.8z"
	/>
<path opacity="0.2" fill="#FFFFFF" d="M20.7,81.4c0.1,1.1,11.2,4.3,13.4,4.3c2.2,0,5.9,0.4,6-2.8C40.1,79.6,20.6,79,20.7,81.4z"/>
<path opacity="0.2" fill="#FFFFFF" d="M31,82.8c0.1,1.2,4.8,2.9,6.4,2.7c1.6-0.2,2.3-0.4,2.2-2.2c-0.1-1.8-2.2-1.8-3.4-1.7
	C34.9,81.8,31,82,31,82.8z"/>
<path opacity="0.1" fill="#FFFFFF" d="M8.5,71.7c2.5-0.1,13.1-17,13.8-20.6c0.7-3.6,4-10.1-3.9-11.1C13.7,39.5,6.1,71.8,8.5,71.7z"
	/>
<path opacity="0.2" fill="#FFFFFF" d="M13.5,62.7c1,0.3,7.6-9.3,8.2-11.4c0.7-2.1,2.2-5.5-0.9-6.6C17.7,43.6,11.2,62.1,13.5,62.7z"
	/>
<circle opacity="0.26" fill="#FCEAEB" cx="37.6" cy="83.9" r="1"/>
<path opacity="0.2" fill="#FFFFFF" d="M18,54.4c0.8,0.3,3.4-2.9,3.8-4.2c0.4-1.3,0.5-1.9-0.7-2.3c-1.2-0.4-1.8,1.2-2.2,2.2
	C18.5,51.1,17.4,54.2,18,54.4z"/>
<path opacity="0.25" fill="#010101" d="M13.6,73.6c-2.1,0.1-2.7,0.3-3.3,0.5c-0.6,0.2,3.1,0,3.3-0.2C13.7,73.8,13.6,73.6,13.6,73.6z
	"/>
<path opacity="0.1" fill="#010101" d="M50.6,71.7c-0.4,0.5-0.7,0.7-0.8,0.5c-0.1-0.2-0.1-0.4-0.4-0.2c-0.3,0.2-0.5,0.1-0.3,0
	c0.2-0.1,1.1-0.4,1.2-0.6c0-0.2,0.6-0.4,0.5-0.3C50.8,71.3,50.6,71.7,50.6,71.7z"/>
<path fill="#374B87" d="M50.7,71c0,0.2,0.3,0.3,0.5-0.1c0.2-0.4,0.8-1.5,0.8-1.7c0-0.2,0.1-0.5-0.1-0.4C51.8,68.9,50.8,70.5,50.7,71
	z"/>
<path fill="#F3797A" d="M43.4,6.9c1.8-0.2,3,2.2,3.3,5.2c0.1,0.7,0.3,1.1,0.5,2c0.2,0.6-0.3,1.5-0.5,1.9c-0.5,0.7-0.2,1.1-0.2,1.4
	c0,0.3,2,3.5,2.2,3.9c0.1,0.4-0.1,1-0.6,1.4c-0.6,0.4-1.2,0.6-1.4,0.6c-0.2,0,0,0.7,0.2,0.8c0.5,0.4,0.5,0.8,0.2,1.3
	c-0.3,0.5-1,0.9-1.1,1.1c-0.1,0.3,0.9,0.3,1.1,0.9c0.2,0.6,0.1,1.4-1,1.5c-0.2,0-0.6,0.3-0.7,1.1c-0.1,0.7-0.2,1.7-0.7,2.1
	c-0.5,0.5-2.2,0.5-2.9,0.2c-0.7-0.3-1.9-6.2-2.5-13.6C39,15.8,39.5,7.2,43.4,6.9z"/>
<path opacity="0.1" fill="#FFFFFF" d="M45.9,15.5c-0.3,0.1-0.7,3.1-1.8,3.1c-1,0-1.5-1.2-2.4-1c-0.9,0.1-1,1.2-1,1.7
	c0,0.5-0.1,2.3-0.1,2.9c0,0.5,1.3,9,1.9,9.7c0.4,0.5,2.4,1.1,2.6-2.1c0-0.7-0.7-1.1-0.3-1.7c0.6-0.8,0.4-1-0.2-1.5
	c-0.3-0.2,1-1.2,2.3-2.3c0,0-0.1-0.1-0.1-0.1c-0.2-0.2-0.4-0.8-0.2-0.8c0.2,0,0.8-0.2,1.4-0.6c0.6-0.4,0.7-1,0.6-1.4
	c-0.1-0.4-2.1-3.6-2.2-3.9c0-0.2-0.3-0.7,0.1-1.3C46.3,15.7,46.1,15.5,45.9,15.5z"/>
<path opacity="0.1" fill="#FFFFFF" d="M46.5,17.4c0-0.2-0.2-0.4-0.1-0.8c-0.2-0.1-0.3-0.2-0.4-0.2c-0.3,0.1-0.7,2.7-1.8,2.7
	c-1,0-1-0.6-1.9-0.5c-0.9,0.1-0.8,1.1-0.8,1.6c0,0.5,1.4,1.4,1.4,1.9s-0.9,3.5-0.3,4.2c0.6,0.7,0.9-0.4,1.4-0.5
	c0.6,0,0.8-1.6,1.4-1.6c0.2,0,0.6-0.1,1.1-0.3c-0.1-0.2-0.2-0.6-0.1-0.7c0.2,0,0.8-0.2,1.4-0.6c0.6-0.4,0.7-1,0.6-1.4
	C48.5,20.8,46.5,17.6,46.5,17.4z"/>
<path opacity="0.1" fill="#010101" d="M45.3,23c-0.3-0.3-0.2,0-0.4,0c-0.2,0-0.6-0.1-0.4-0.2c0.2,0,0.4,0,0.3-0.9
	c-0.1-0.9,0.3-1.3,0.5-1.3c0.2,0,0.4,0.4,0.6,0.4c0.3,0,0.2-0.3,0.6-0.3c0.4,0,0.5,0.2,0.6,0.4c0,0.2-0.2,0.5-0.4,0.5
	c0,0-0.4-0.4-1.2,0.5c-0.6,0.7,2.8-1,2.8,0.1c0,0.6-1.7,0.9-1.7,1.1c0,0.7,0.4,0.9,0.3,0.9c-0.5,0-1.8,1.7-1.8,1.6
	c-0.1-1,0.8-1.2,1-1.5c0.3-0.4,0.1-0.6,0.1-0.6C46,23.5,45.7,23.3,45.3,23z"/>
<path opacity="0.2" fill="#010101" d="M45.3,22.4c0,0.3,0.3,0.5,0.1,0.6c-0.2,0-0.3-0.2-0.4-0.5c0-0.3,0.1-0.6,0.3-0.6
	C45.5,21.8,45.2,22.1,45.3,22.4z"/>
<path fill="#374B87" d="M45,15.7c0,0.3,1.4-0.4,1.4-0.7c0-0.3-0.3-0.2-0.3-0.2c-1.2-1-3.3-0.2-3.5,0.1c-0.1,0.2,0,0,0.9-0.1
	C43.9,14.8,44.9,14.7,45,15.7z"/>
<path opacity="0.2" fill="#010101" d="M45,15.7c0,0.3,1.4-0.4,1.4-0.7c0-0.3-0.3-0.2-0.3-0.2c-1.2-1-3.3-0.2-3.5,0.1
	c-0.1,0.2,0,0,0.9-0.1C43.9,14.8,44.9,14.7,45,15.7z"/>
<path opacity="0.36" fill="#010101" d="M41.9,16.5c0.4,0,2,0.7,2.5,0.7c0.3,0,0.2,0.2,0.8,0.2c-0.1,0.1-0.5,0.4-1.2,0.5
	c-0.6,0.1,0.1,0.3,0,0.3c-0.2,0-0.5,0-0.9-0.4C42.7,17.5,42.2,16.8,41.9,16.5z"/>
<path opacity="0.2" fill="#010101" d="M47.5,22.6c0.1-0.1-0.2-0.5-0.7-0.5c-0.4,0-0.8,0.1-0.8,0.4c0,0.5,0.3-0.1,0.6-0.2
	C46.9,22.4,47.4,22.7,47.5,22.6z"/>
<path opacity="0.21" fill="#010101" d="M47,24.2c0.2,0.1,0.5,0.7-0.1,1.4c-0.7,0.7-1,0.8-0.9,1c0,0.2,0.5,0.2,1,0.7
	c0.5,0.4-0.1,1.3-0.2,1.5c0,0-0.1-0.5-2.1-2.2C44.6,26.3,46.7,23.9,47,24.2z"/>
<path fill="#374B87" d="M44.7,26.5c0.1,0.1,0.8,0.6,0.9,0.7c0.3,0.2,1.1,1.4,1.1,1.5c0,0,0.4-0.4,0.4-0.9c0-0.1-0.1-0.5-0.3-0.7
	C46,26.4,44.7,26.4,44.7,26.5z"/>
<path fill="#374B87" d="M47,24.2c-0.3-0.3-2.4,2-2.3,2.3c0,0.2,0.8-0.4,1.1-0.5c0.6-0.3,0.8-0.4,1.1-0.4
	C47.1,25.5,47.6,24.7,47,24.2z"/>
<path opacity="0.36" fill="#010101" d="M46.9,24.7c0,0.3-0.2,0.8,0,0.8c0.2,0-0.1,0.1-0.4,0.1c-0.6,0.1-1.3,0.8-1.7,0.8
	c0,0.2,1.2,0,1.8,0.5c0.3,0.2,0.5,0.3,0.5,0.8c0,0.1-0.1,0-0.3-0.2c-0.4-0.3-0.6-0.4-1.1-0.5c-0.5-0.1-1.1-0.5-1.1-0.7
	C44.7,26.4,46.9,24.4,46.9,24.7z"/>
<path opacity="0.7" fill="#010101" d="M47.3,22.4c0,0-0.1,0.1-0.2,0c-0.2-0.1-0.4-0.1-0.4-0.2c0,0,0.2-0.1,0.3-0.1
	C47,22.2,47.3,22.3,47.3,22.4z"/>
<path opacity="0.2" fill="#FFFFFF" d="M48.1,20.7c-0.1,0.1,0.4,0.8,0.4,0.5C48.5,21,48.3,20.6,48.1,20.7z"/>
<path opacity="0.2" fill="#FFFFFF" d="M46.8,18.3c-0.1,0,0.7,1.2,0.7,1C47.4,19.2,46.9,18.3,46.8,18.3z"/>
<path opacity="0.2" fill="#FFFFFF" d="M47.7,19.4c0,0,0.3,0.5,0.3,0.4C47.9,19.7,47.7,19.4,47.7,19.4z"/>
<path opacity="0.1" fill="#FFFFFF" d="M44.6,8.9c-0.7,0.1-0.4,1.8-0.3,3c0.1,1.1,0.4,0.6,0.4,1c0,0.5-0.9,0.7-0.8,1
	c0,0.3,1-0.1,1.7-0.1c0.7-0.1,0.9,0.5,0.9,1c0,0.5,0.1,0.3,0.2,0.2c0.6-0.3,0.1-2.5-0.3-3.5C46.2,10.4,45.1,8.9,44.6,8.9z"/>
<path opacity="0.1" fill="#FFFFFF" d="M44.9,31.2c0,0.2-0.7,0.1-1,0.1c-0.3,0-0.8-0.1-0.8-0.2c0-0.2,0.8-0.8,1.2-0.9
	C45.3,30.1,44.8,30.1,44.9,31.2z"/>
<path opacity="0.2" fill="#010101" d="M24.2,53.1c0-7.2-0.1-13.3-3.5-12.9c-4.1,0.5-2,7.1-7.8,7.8C8.5,48.5,6,53.6,6,53.5
	c-0.5-1.5-1.9-5.6,4-13.1c0,0,14.3-6.6,15.8-1.5C27.3,44,24.2,60.3,24.2,53.1z"/>
<path opacity="0.1" fill="#010101" d="M39.8,20.3c0.5,3.4,2.3,9,2.9,14.1c0.5,4.6,1.2,11.1-1.1,12.4c-3.7,2.1-3.5,6-6.6,9.9
	c-2.1,2.7-3.4,5.7-2.9,8c0.5,2-3.2-2.5-3-3.9C29.4,59.5,39.6,19.3,39.8,20.3z"/>
<path opacity="0.2" fill="#010101" d="M40.5,36c2.3-1.3,3.4-2.2,1.5-9.2c-1.3-5-1.1-4.6-1.5-8c-0.8-7,1.3-14.6,4.7-10.9
	c0-2.5-1-1.4-4.2-1.3c-3.2,0.2-3.7,13.3-2.6,16S40.5,36,40.5,36z"/>
<path fill="#374B87" d="M45.5,8.1c-0.2-2-0.5-7.4-4-7c-1.4,0.2-3.2,0-5.2-0.6c-2.1-0.7-7.8-1.9-13.9,5.8
	c-3.6,4.6-7.2,25.9-12.9,33.1C3.6,46.9,3.7,53,5.8,53c0.1,0,2.2-5.5,6.6-6c5.8-0.7,3.7-7.3,7.8-7.8c3.5-0.4,4.6,5.8,3.5,12.9
	c-1.1,7.4,2.4,12.5,5.7,15.1c1.7,1.3,6.8,2.7,8.4,0.7c-3.8,0.4-5.3-1.2-5.7-4.7c-0.3-2.3,0.8-5.3,2.9-8c3.1-3.9,2.9-7.8,6.6-9.9
	c2.3-1.3,1.6-7.8,1.1-12.4c-0.6-5.1-2.5-10.7-2.9-14.1C38.9,11.8,42,4.4,45.5,8.1z"/>
<path opacity="0.2" fill="#010101" d="M38.7,67.9"/>
<path opacity="0.1" fill="#FFFFFF" d="M25,4.2c0.9-0.9,3.6-2,3.2-1.6c-0.4,0.4-2.2,3-1.8,2.9c0.4-0.2,2.8-0.6,2.7-0.2
	c-0.1,0.4-6.5,5.7-6.7,5.4c-0.2-0.3,0.8-3.2,0.3-2.7C21.1,9.3,24.5,4.7,25,4.2z"/>
<path opacity="0.1" fill="#FFFFFF" d="M25.2,6.1C24.1,7,24.4,7.3,24,7.7C23.6,8,23.5,8.8,24,8.3c0.5-0.5,1.2-1.3,1.5-1.5
	c0.3-0.2,0.8-1.2,0.3-0.9C25.3,6.1,25.2,6.1,25.2,6.1z"/>
<path opacity="0.1" fill="#FFFFFF" d="M40.9,3.7c-1.3,0-1.2,4.8-1.1,6c0.1,1.2,0.5-0.8,0.6-3.1C40.5,4.3,41.4,3.7,40.9,3.7z"/>
<path opacity="5.000000e-002" fill="#FFFFFF" d="M37,32.3c0,5.2-1.8,13.3-2.5,13.3c-0.7,0.1,1.9-5.4-0.8-14.5
	c-0.2-0.7,1-5.8,1.7-5.9C36.2,25.2,37,31.6,37,32.3z"/>
<path opacity="5.000000e-002" fill="#FFFFFF" d="M40.9,37.1c-0.7,3.7-3.1,9.2-3.6,9.1c-0.5,0,2-3.6,1.5-10.4c0-0.5,1.5-4,2-4
	C41.3,31.9,41,36.6,40.9,37.1z"/>
<path opacity="5.000000e-002" fill="#FFFFFF" d="M23.7,22.1c-0.7,1.6-2.2,4-2.4,3.9c-0.2-0.1,1.2-3.9,1.3-4.2
	c0.1-0.2,1.4-1.8,1.6-1.7C24.4,20.2,23.8,21.9,23.7,22.1z"/>
<path opacity="5.000000e-002" fill="#FFFFFF" d="M25.8,22c-0.7,1.6-2.4,3.8-2.6,3.7c-0.2-0.1,1.4-3.8,1.5-4.1
	c0.1-0.2,3.3-5.4,3.6-5.4C28.5,16.4,25.9,21.8,25.8,22z"/>
<path opacity="0.1" fill="#010101" d="M18.4,35.1c2.6-1,9.9-11.7,10.6-11.1c0.7,0.5,4.4,12.8,3.7,15c-0.7,2.2-2.6-2.3-2.7-0.1
	c-0.1,2.2,4.5,8.4,1,11.5c-5.6,5-1.5,13.1-1.7,14.4c0,0-3.9-3.5-4.4-8.7c-0.1-1.8,0.8-7.5,1.2-10C27.1,37.2,17.8,35.3,18.4,35.1z"/>
<path opacity="0.1" fill="#010101" d="M39.7,2.2c1.6,1.4-3.9,4.9-4.1,7.3c-0.2,2.4,3.4,4.1,3.7,10.3c0.3,6.2-2.2,5.6-1.6,9.9
	c0.5,4.3,0.1,8.8-0.9,10.7c1.7-8.7-0.4-16.2-0.1-18.6c0.3-2.4-0.7-5.4-2.6-7.5c-1.9-2.1-5.1-2.5-3.8-5.1c1.3-2.6,0-6.6,3-7.8
	C36.3,0.2,38.8,1.4,39.7,2.2z"/>
<path opacity="0.1" fill="#010101" d="M20.2,14.5c9.9-10,5.4,0.4,4.8,2.4c-0.6,2.1-7.5,14.8-11.3,19.3c-3.8,4.5-6,8.6-6.3,10.7
	c-0.6-1.2,3.9-9.8,5.5-11.5C14.6,33.8,19.8,15,20.2,14.5z"/>
</svg>
