<?xml version="1.0" encoding="utf-8"?>
<!-- Generator: Adobe Illustrator 19.0.1, SVG Export Plug-In . SVG Version: 6.00 Build 0)  -->
<svg version="1.1" id="Layer_1"  width="120" height="120" xmlns="http://www.w3.org/2000/svg" xmlns:xlink="http://www.w3.org/1999/xlink" x="0px" y="0px"
	 viewBox="0 0 612 792" style="enable-background:new 0 0 100 100;"  xml:space="preserve">
<style type="text/css">
	.st0{fill:#F3797A;}
	.st1{opacity:0.2;fill:#010101;}
	.st2{opacity:0.2;fill:#FFFFFF;}
	.st3{opacity:0.1;fill:#FFFFFF;}
	.st4{opacity:0.1;fill:#010101;}
	.st5{opacity:5.000000e-002;clip-path:url(#SVGID_2_);fill:#010101;}
	.st6{opacity:0.1;clip-path:url(#SVGID_2_);fill:#010101;}
	.st7{opacity:5.000000e-002;fill:#010101;}
	.st8{fill:#374B87;}
	.st9{fill:#B45A5A;}
	.st10{opacity:0.1;clip-path:url(#SVGID_4_);fill:#010101;}
	.st11{opacity:0.2;clip-path:url(#SVGID_4_);fill:#010101;}
	.st12{opacity:0.1;clip-path:url(#SVGID_4_);fill:#FFFFFF;}
	.st13{opacity:0.2;clip-path:url(#SVGID_4_);fill:#FFFFFF;}
	.st14{opacity:0.27;fill:#FFFFFF;}
	.st15{opacity:0.26;fill:#FCEAEB;}
	.st16{opacity:0.25;fill:#010101;}
	.st17{opacity:0.1;clip-path:url(#SVGID_6_);fill:#FFFFFF;}
	.st18{opacity:0.36;fill:#010101;}
	.st19{opacity:0.21;fill:#010101;}
	.st20{opacity:0.7;fill:#010101;}
	.st21{opacity:5.000000e-002;fill:#FFFFFF;}
</style>
<path class="st0" d="M154.5,443.2c1.2,5.1,60.8,16,73,12.5c12.1-3.5,14.3-3.2,14.3-6.2c0-3.1-4.2-55.7,0-89.2c1-8.3-2-10.8-3.6-9.3
	L154.5,443.2z"/>
<path class="st1" d="M216.7,392.7c-3.6-1.4-20.9,25.3-24.5,35.6c-3.6,10.3-5,15,0.3,16.8c5.3,1.8,10.8-11,13.9-18.9
	C209.4,418.2,219.1,393.7,216.7,392.7z"/>
<path class="st1" d="M222.6,442.6c-0.1-1.2-21.5-1.2-28.9-0.4c-7.3,0.8-10.7,1.3-10.3,3.1c0.3,1.8,9.8,1,15.6,0.4
	C204.8,445.2,222.7,443.5,222.6,442.6z"/>
<path class="st0" d="M361.4,488.4c-0.8,7.8-3,40,1.7,43.3c4.6,3.3,102.2-64.9,109.7-71.4c7.6-6.5,6.5-35.8-2.3-32.2
	c-22.5,9.3-95.4,36.4-103,45.3C362.1,479.7,361.7,485.8,361.4,488.4z"/>
<path class="st2" d="M373.6,500c0.2,7,14.9,4.2,23.7-1.8c8.8-6,55.6-31.9,55.6-36.9c0-4.3,7.9-17.3,2.7-17.3
	c-4.8,0-16.7,5.6-18.7,10.1s-19.9,11.3-28.7,16.1C399.5,475.1,373.4,493.8,373.6,500z"/>
<path class="st0" d="M443.4,486.4"/>
<path class="st0" d="M465.5,430.2c6.4-2.8,16.8-18.7,37.7-18.2c20.9,0.5,69.6,30.5,73.9,28c4.3-2.5,9.6,2.1,9.4,2.9s-2,5.4-4.8,8.8
	c-2.9,3.4-8.2,16-13.1,17.6c-5.1,1.7-9.1,9.2-14,10c-4.9,0.8-8.8-2.5-12.1-1.2c-5.5,2.1-9.8-4.2-11-4.2c-1.2,0-13.9,0.1-16.4-0.5
	c-2.6-0.6-6.6,2.7-12.8-2.6c-2.5-2.1-11.1-6.3-19-7.3c-7.9-1-9.4-3.1-10.8-3.2s-5.8,0.9-9.2,3.6C460,466.5,459.1,433,465.5,430.2z"
	/>
<path class="st3" d="M464.9,431.9c-1,4.1,4,10.1,5.3,12.3s6.7-1.1,7.8,1.7c1.1,2.8,1.6,5.7,2.6,5.7c1,0,4.6-5.7,2.1-11.9
	s-2.9-9.7-1.4-11.8s18.8-11.1,21.7-10.8c2.9,0.3,3.1-2,2.5-2.9c-0.6-0.9-16-1.5-23.3,2.8C475,421.4,465.5,429.7,464.9,431.9z"/>
<path class="st3" d="M469,430.7c-3.2,4,4.1,17.1,7,7.6s0.6-11.9,3.3-14s-5.5-1.4-12.4,5.6C465.9,430.7,469,430.7,469,430.7z"/>
<path class="st4" d="M463.5,439.4c-0.6,7.8,1.6,22.1,5.8,21.4c4.3-0.7,1.6-1.2,3.5-0.6c1.9,0.7,19.7,6.8,18.8,4.9
	c-0.9-2-3.8-3.8-3.2-6.4c0.7-2.6,0.9-5.8,1.8-5c1.8,1.6,4.3,4.9,4.2,3.1c0-1.8-4.9-7.3-1.6-7.3c3.3,0,5.6,2.5,5.5,0.6
	c-0.1-1.9-2.5-2.6-0.6-4.6c1.9-2,5.5-12,4.7-11.7c-0.9,0.3,1.7-14.2,1-15.4c-0.7-1.2-5.2,0.9-6.7,2c-1.5,1.1-15.7,5.1-14.5,7.3
	c1.2,2.2,13.5,5,12.5,6.4c-1,1.4-2.1,6.2-3.1,5.6c-1.1-0.6-9.3-0.7-6.7,0.4c2.6,1.1,6.6,0.3,5.1,2.3s-8.5,5.8-8.2,11.1
	c0.3,5.3,0.2,4.8-1.5,2.3c-1.7-2.5-3.4-4-3.9-2c-0.4,2-0.8,3.6-1.5,1.6c-0.7-2-1.9-5.3-2-1.6c-0.1,3.7-2,6.7-2.3,1.3
	c-0.3-5.3-1.8-13.4-2.1-8.7c-0.3,4.7,0.8,11.4-0.3,6.3c-1.2-5.2-4.4-15.9-4.6-13.7"/>
<g>
	<defs>
		<path id="SVGID_1_" d="M465.5,430.2c6.4-2.8,16.8-18.7,37.7-18.2c20.9,0.5,69.6,30.5,73.9,28c4.3-2.5,9.6,2.1,9.4,2.9
			s-2,5.4-4.8,8.8c-2.9,3.4-8.2,16-13.1,17.6c-5.1,1.7-9.1,9.2-14,10c-4.9,0.8-8.8-2.5-12.1-1.2c-5.5,2.1-9.8-4.2-11-4.2
			c-1.2,0-13.9,0.1-16.4-0.5c-2.6-0.6-6.6,2.7-12.8-2.6c-2.5-2.1-11.1-6.3-19-7.3c-7.9-1-9.4-3.1-10.8-3.2s-5.8,0.9-9.2,3.6
			C460,466.5,459.1,433,465.5,430.2z"/>
	</defs>
	<clipPath id="SVGID_2_">
		<use xlink:href="#SVGID_1_"  style="overflow:visible;"/>
	</clipPath>
	<path class="st5" d="M538.6,468.7c-1.8,0.5-8.5,4.1-9.1,2c-0.6-2.1,4.9-17.2,5.3-19.5c0.4-2.3-4,1-5.3,4.8s-7.8,7.4-9.7,6.5
		s-6.5-5.7-7.5-2.8c-1,2.9,0.9,6.9-1.4,5.1c-2.3-1.7-3.2,0.3-4.6,1.3c-1.4,0.9-2.6,1.3-4.6,0.3c-1.9-1-6.8-2-7.1-0.7
		c-0.1,0.3,0.8,1.2,2.1,2.2c2.5,1.2,4.5,2.4,5.5,3.2c0.3,0.3,0.6,0.5,1,0.8c2.5,1.2,5.1,1.9,7,1.6c4.5-0.8,3-0.8,6,0.4
		c3.8,0.4,12.9,0.3,14.9,0.3c0.9-0.4,1.4-0.7,1.4-0.9c0.1-0.5,2.5,2.9,4.4,4.7c0.9,0.4,1.8,0.7,2.8,0.8c1.5-0.5,3.6-1.3,5.2-0.6l0,0
		c1.2,0.2,2.5,0.6,3.9,1c0-0.2-0.1-0.4-0.2-0.6C547.5,476.2,540.4,468.1,538.6,468.7z"/>
	<path class="st6" d="M538.6,468.7c-1.8,0.5-8.5,4.1-9.1,2c-0.6-2.1,4.9-17.2,5.3-19.5c0.4-2.3-4,1-5.3,4.8s-7.8,7.4-9.7,6.5
		s-6.5-5.7-7.5-2.8c-1,2.9,0.9,6.9-1.4,5.1c-2.3-1.7-3.2,0.3-4.6,1.3c-1.4,0.9-2.6,1.3-4.6,0.3c-1.9-1-6.8-2-7.1-0.7
		c-0.1,0.3,0.8,1.2,2.1,2.2c2.5,1.2,4.5,2.4,5.5,3.2c0.3,0.3,0.6,0.5,1,0.8c2.5,1.2,4.9,2.6,6.9,2.3c4.5-0.8,3.1-1.5,6.1-0.3
		c3.8,0.4,12.9,0.3,14.9,0.3c0.9-0.4,1,1.2,1,1c0.1-0.5,2.9,1,4.8,2.9c0.9,0.4,1.8,0.7,2.8,0.8c1.5-0.5,3.6-1.3,5.2-0.6l0,0
		c1.2,0.2,2.5,0.6,3.9,1c0-0.2-0.1-0.4-0.2-0.6C547.5,476.2,540.4,468.1,538.6,468.7z"/>
</g>
<path class="st4" d="M549.4,453.4c-2.6,2.6-3.4,1-4.9,6c-1.4,5,3.2,3.1,3.2,6c0,2.9-5.3,6.7-2,8.7c3.2,2,5.3,1.4,5-1.5
	c-0.3-2.9,0-11.2,2.2-11.2s-1.6,4.5,0.1,4.5c1.7,0,1.9-6.4,5.1-9.6s4.1-6.3,6-6.3S550.4,452.4,549.4,453.4z"/>
<path class="st7" d="M506.8,456.8c-0.5,6.7,6.1,14.1,11.5,13.1c5.4-1,14.7-15.3,16-17.9c1.3-2.6,2.8-6.9,6.2-6.3
	c3.4,0.6,6.5,0.9,6.6,5.1c0.1,4.2-1.6,5.9-2.1,7.9c-2,8-2.5,7.2-3.3,9.2s6,9.7,7.5,6.8c1.5-2.8,2-13.9,3.1-12.6
	c1.1,1.3-0.7,6.6,1.7,5.7c2.4-0.9,3.4-11.9,4.8-13.7c1.4-1.9,10.5-6.2,11.5-3.7c1,2.5,4.4-3.3,3.7-5.6c-0.7-2.3-17.9-13.6-23.6-15.3
	c-5.8-1.7-41.2-12.6-44.8-12.4c-3.6,0.2-24,5.9-21.8,9.3s13.5,7,16.1,7.2c2.6,0.2,3.6-2.6,6.3-4.8c2.7-2.1,7.4-3,8.9,0.7
	c1.4,3.7-0.9,6.3-4,11.3C507.8,445.9,507.1,452.4,506.8,456.8z"/>
<path class="st4" d="M514.6,450c-0.5,6.7,4.3,9.9,9.7,10.9c6.1,1.2,8.8-6.4,10.1-9c1.3-2.6,2.8-6.9,6.2-6.3c3.4,0.6,6.5,0.9,6.6,5.1
	c0.1,4.2-1.6,5.9-2.1,7.9c-2,8-2.5,7.2-3.3,9.2s6,9.7,7.5,6.8c1.5-2.8,2-13.9,3.1-12.6c1.1,1.3-0.7,6.6,1.7,5.7
	c2.4-0.9,3.4-11.9,4.8-13.7c1.4-1.9,10.5-6.2,11.5-3.7c1,2.5,4.4-3.3,3.7-5.6c-0.7-2.3-22.1-5.1-27.9-6.8
	c-5.8-1.7-19.4-10.7-23-10.5s-18.6-8.1-16.4-4.7s-9.5,10.5-6.8,10.7c2.6,0.2,3.6-2.6,6.3-4.8c2.7-2.1,7.4-3,8.9,0.7
	c1.4,3.7-0.9,6.3-4,11.3C507.8,445.9,514.9,445.7,514.6,450z"/>
<path class="st0" d="M504.2,430.8c-6.3,9.4-4.9,12.3-4.3,14.9s7.1,8.8,7.8,3.9c0.6-4.3,11.3-18.7,6.2-21.3
	C509.3,425.9,505.3,429.1,504.2,430.8z"/>
<path class="st0" d="M535.9,448.9c-3.4,6.9-10.2,19.9-5.4,21s11.7-2.9,14.1-9.5c2.4-6.6,4.9-13-0.1-14.3
	C540.6,445,537.4,445.8,535.9,448.9z"/>
<path class="st0" d="M561.3,454.7c-3.8,5.5-5,4.5-6.5,12.3s13.5,3.3,15.9,1c2.4-2.3,16.8-22,15.1-24.8c-1.6-2.7-6-6.6-8.9-2
	c-3,4.7-3.8,8.5-5.8,8.5S565.1,449.3,561.3,454.7z"/>
<path class="st8" d="M507.3,431.3c-1,2-1.9,4.4-1.1,5.2c1.2,1.2,4.2,2,5.4,0.4c2.4-3.2,3.4-10,1.8-10.8
	C511.8,425.2,509.1,427.6,507.3,431.3z"/>
<path class="st8" d="M538.9,450.2c-1.1,3.1-2.5,7.6,0.6,8.6c3,1,5.5-2.3,6.3-5.7c0.8-3.4,1.6-9.2-0.9-9.8
	C542.8,442.9,539.7,448.1,538.9,450.2z"/>
<path class="st8" d="M566.3,456.5c-0.5,1.8-2.1,6.4,0.8,6.7c2.9,0.3,4.2-2.7,4.8-5.6s1.2-7,0.4-7.3
	C569.2,449.5,566.7,455.3,566.3,456.5z"/>
<path class="st8" d="M580.7,450c-0.9,1.7-3.6,3.6-2.6,4.6c1,1,1.1,0.8,1.4,0.3c0.3-0.4,5.5-7.4,5.7-8.3
	C585.4,445.6,581.2,449.1,580.7,450z"/>
<path class="st8" d="M584.6,444c-0.4,1.4-1.1,1.5-0.3,2.1c0.9,0.6-0.2,2-0.1,1.7c0.1-0.3,3.2-6,3.3-6.8
	C587.5,440.2,584.8,443.3,584.6,444z"/>
<path class="st9" d="M147.3,472.9c0.8,10.4,3.7,26.6,6.8,43.4c4.7,25.6,9.8,52.7,8.2,62.8c-2.6,16.8-22.8,99.1-19.6,109.1
	c3.1,10,156.8,20.7,189.6,13.9c32.8-6.8,38.5-6.3,38.5-12.3c0-6-20.9-113.4,0-198.6c4-16.1-7.4-26.6-11.7-23.8
	c-4.3,2.9-168.4-25.7-173-20C181.5,453,147,468.4,147.3,472.9z"/>
<g>
	<defs>
		<path id="SVGID_3_" d="M147.3,471.3c0.8,10.4,3.7,26.6,6.8,43.4c4.7,25.6,9.8,52.7,8.2,62.8c-2.6,16.8-19.3,89.6-19.3,100
			c0,10.5,156.5,29.8,189.2,22.9c32.8-6.8,38.5-6.3,38.5-12.3c0-6-21.9-120.7,0-198.6c4.5-16-5.4-21.1-9.7-18.2
			s-175.8-32-180.4-26.3C176.1,450.7,147,466.8,147.3,471.3z"/>
	</defs>
	<use xlink:href="#SVGID_3_"  style="overflow:visible;fill:#F3797A;"/>
	<clipPath id="SVGID_4_">
		<use xlink:href="#SVGID_3_"  style="overflow:visible;"/>
	</clipPath>
	<path class="st10" d="M162.1,690.1c0,9.3-3.3,16.9-7.4,16.9h-12.2c-4.1,0-7.4-7.5-7.4-16.9v-31.6c0-9.3,3.3-16.9,7.4-16.9h12.2
		c4.1,0,7.4,7.5,7.4,16.9V690.1z"/>
	<path class="st11" d="M189.8,684.5c0,7.5-6.8,13.6-15.3,13.6h-25.1c-8.4,0-15.3-6.1-15.3-13.6V659c0-7.5,6.8-13.6,15.3-13.6h25.1
		c8.4,0,15.3,6.1,15.3,13.6V684.5z"/>
	<path class="st12" d="M174.9,625.2c1.4,5.6-2.8,65.8,9.6,78.2c2.5,2.5,8.5,34.1,88.8,34.1c47.7,0,54.5-6,65.8-17.2
		c9-9,28.4-4.6,28.4-74C367.4,605.1,172.8,616.6,174.9,625.2z"/>
	<path class="st13" d="M238,657.5c-14.6,14.6-34.8,28.6-25.3,39.9c1.9,2.3,4.5,31.3,66.1,31.3c36.5,0,41.7-5.4,50.4-15.7
		c6.9-8.2,16.5-2.9,16.5-66.1C345.7,609.3,249.9,645.5,238,657.5z"/>
	<circle class="st12" cx="318.8" cy="681" r="15.2"/>
</g>
<path class="st3" d="M173.1,472.9c1.4,5.6-2.8,65.8,9.6,78.2c2.5,2.5,8.5,34.1,88.8,34.1c47.7,0,54.5-6,65.8-17.2
	c9-9,28.4-4.6,28.4-74C365.6,452.8,171,464.3,173.1,472.9z"/>
<path class="st3" d="M184.5,477.5c12.7,47.4-0.2,59.7,10.5,71c2.2,2.3,5.1,31.3,74,31.3c40.9,0,46.8-5.4,56.4-15.7
	c7.8-8.2,18.5-2.9,18.5-66.1C343.9,460.4,182.4,469.7,184.5,477.5z"/>
<path class="st2" d="M236.2,505.2c-14.6,14.6-34.8,28.6-25.3,39.9c1.9,2.3,4.5,31.3,66.1,31.3c36.5,0,41.7-5.4,50.4-15.7
	c6.9-8.2,16.5-2.9,16.5-66.1C343.9,457,248.1,493.2,236.2,505.2z"/>
<path class="st2" d="M264.5,518.7c-7.4,7.6-17.5,14.8-12.7,20.7c1,1.2,2.3,16.2,33.2,16.2c18.4,0,21-2.8,25.3-8.2
	c3.5-4.3,8.3-1.5,8.3-34.3C318.7,493.7,270.6,512.5,264.5,518.7z"/>
<ellipse class="st2" cx="215.4" cy="496.2" rx="8.4" ry="8.3"/>
<path class="st1" d="M155.4,517.6c0-9,11.3-32.5,13-26.7c1.7,6,2.9,46.8,16,64.8c13.2,18,49.1,28.2,68.8,31.4
	c19.7,3.1,63.9,10.8,108.8-34.5c-3.9,14.9,8.1,52-35.8,47.2c-3.6-0.4-39.5-4.6-51.6-5.4c-12.1-0.9-52.3-5-68.1-10.3
	s-41.1-14.4-43.2-16.4C162.4,566.7,155.4,520.3,155.4,517.6z"/>
<path class="st4" d="M154.4,517.6c0-9,4.4-17.6,4.7-11.6c0.3,6,0.9,33.6,14,51.6c13.2,18,49.7,26.8,69.3,29.9
	c19.7,3.1,103.1,2.4,103.4,6.8c0.3,4.4-17.1,5.7-20.6,5.4c-3.6-0.3-39.5-4.6-51.6-5.4c-12.1-0.9-52.3-5-68.1-10.3
	s-41.1-14.4-43.2-16.4C161.4,566.7,154.4,520.3,154.4,517.6z"/>
<path class="st0" d="M338.5,328.9c18.8,10.9,67.4,57.8,67.4,75.2c0,17.4,0.8,54.2-34,54.2s-10.5-2.1-10.5-9.8s-3.7-21.4-37.9-21.4
	s-35.9,8.4-35.9-14.7S333.1,325.7,338.5,328.9z"/>
<path class="st3" d="M340.2,342.7c7,0,34,16.2,44.5,23c9.6,6.2,18.1,24.3,18.1,35.7s8,43.7-31.7,43.7c-5.3,0-3.1-14-3.7-22
	c-1.3,25.7-12.7,5-29.6-2.1s-26.2-9.6-26.2-23.2s10.5-17,15.1-17c4.6,0,33.3,12.3,33.3,20.9c0-9.8-25.8-28.8-24.7-49.3
	C335.8,342.7,340.2,342.7,340.2,342.7z"/>
<path class="st2" d="M321.1,399.1c0,6.5-2.2,6.8,17,12.4c19.2,5.5,20.3,14,23.9,14s-2.1-15.6-14-23.1
	C336.2,394.8,321.1,388.2,321.1,399.1z"/>
<path class="st2" d="M347.5,360.9c-3,0-2.2,13.2,1.4,16.8c3.6,3.6,21.3,29.3,21.5,44c0.2,14.7,8.6,15.2,11.6,15.2s4-7.6,10.3-13.8
	c6.2-6.2,10-11,10-20.4c0-9.4-13.6-22.3-19.1-25.9C378.7,373.8,349.8,360.9,347.5,360.9z"/>
<path class="st2" d="M378.7,391.5c-1.2,0-0.8,5.2,0.6,6.6c1.4,1.4,6.3,11.4,6.4,17.2c0.1,5.8-2.6,5.9-1.5,5.9s3.5-3,5.9-5.4
	c2.4-2.4,3-4.3,3-8c0-3.7-6.4-8.7-8.5-10.1C382.9,396.5,379.6,391.5,378.7,391.5z"/>
<path class="st4" d="M404.1,399.5c6.8,10.9,11.4,33.8,2.9,50.5c-11.8,23-41.2,36.3-39.5,38.8c-2.7-3.8-5.2-15.7-8.8-15.3
	c-3.6,0.4-15.9,25.7-34.9,31.8c-19,6.1-48.3,5.3-81.4-7c-33.1-12.4-63.2-19.3-67.7-19.9c-4.4-0.6,13.3-32.3,16.3-31.8
	c3,0.6,35.1,0.6,44.2-4.2c24.9-12.9,25.3-43.5,41.8-39.3c16.5,4.2,93,20.9,86.1,53c-2,9.2,3.4,1.3,5.1,1c0,0,37.2-27.5,37.2-46.9
	C405.4,406.9,402.8,397.4,404.1,399.5z"/>
<path class="st8" d="M404.1,396.3c6.8,10.9,11.4,33.8,2.9,50.5c-11.8,23-41.2,36.3-39.5,38.8c-2.7-3.8-5.2-15.7-8.8-15.3
	c-3.6,0.4-15.9,25.7-34.9,31.8s-48.3,5.3-81.4-7s-63.2-19.3-67.7-19.9c-4.4-0.6,13.3-32.3,16.3-31.8c3,0.6,35.1,0.6,44.2-4.2
	c24.9-12.9,25.3-43.5,41.8-39.3c16.5,4.2,93,20.9,86.1,53c-2,9.2,3.4,1.3,5.1,1c0,0,37.2-27.5,37.2-46.9
	C405.4,403.7,402.8,394.3,404.1,396.3z"/>
<path class="st4" d="M362.1,462.6c-2.2,3.9-1.9,3.4,0,7.6s7.6,17.7,7.7,12.3C369.9,477,363.2,460.6,362.1,462.6z"/>
<path class="st4" d="M367.4,450.9c-0.4,1-1.5,2.9-0.4,2.9c1.1,0.1,16.3-8.1,16-8.6C382.8,444.8,367.7,450.3,367.4,450.9z"/>
<path class="st4" d="M186.8,447.8c-2.5,4-13.3,22.5-11.9,23.4c1.4,0.9,16.6,4.1,23.2,5.1c6.6,1,23.6,8.8,18.8,3.7
	c-4.7-5-24.5-17.1-24-20.4C194.2,451,188.1,445.8,186.8,447.8z"/>
<path class="st4" d="M278.4,443c-6.2,6.3-8.6,15.7-6.7,25c1.9,9.3,12.2,27,29.3,29.1c17.1,2.1,30-3.8,35-8
	c4.9-4.2-23.9,7.2-35.5-1.5c-7.4-5.6-15-23.6-3-37.4C305.5,440.8,280.3,441.1,278.4,443z"/>
<path class="st4" d="M369.8,469.9c0.5,6.2,0.4,10.3,4.5,7.5c3.4-2.3,14.4-10.3,18.1-14.4c3.7-4.1-1.7,0.8-10.7,2.2
	C372.7,466.5,369.6,467,369.8,469.9z"/>
<path class="st4" d="M217.2,297.8c17.1,15.4,17.6,58.6-14.6,125.4s-63.5,139.3-62.4,141.3c1.1,2,52.1,20.2,76.7,25.6
	c24.6,5.3,117.5,8.9,120.5,7.8c3-1.1,25.4-11.9,28.6-20.2c4.1-10.5,13-12.4,22.4-17.9c3.7-2.2,11.9-6.5,22.3-11.1
	c8.5-3.7,11.5-15.9,12.6-16.2c1.1-0.3,10.2,4.5,9,12.5c-1.5,10.5-10.8,21.7-20.3,24.7c-1.9,0.6-3,5.1-5.1,6
	c-2,0.9,41.2,5.3,46.6,10.2c4.1,3.7,10.2,12,2.2,20.9c-3.9,4.3-8.7,0.2-8.6,1.7c0.1,1.5,9.7,2.2,10,9.3c0.4,7.3-2.9,13.8-9.6,14.1
	c-6.6,0.4-27.6-5.2-27.2-3.5c0.5,1.7,22.5,8.7,23.7,11.9c1.6,4.4,1.2,11-4,14.3c-7.5,4.8-14.9-1.2-15.8,1.7
	c-2.3,7.2-8.2,11.6-24.3,12.5c-16.1,0.9-16.1,1.6-18.8,1c-2.7-0.6-28.6-4.2-33.7-7.7c-5.1-3.5-23.4-3.5-33.2-5.3
	c-9.8-1.8-89.8,6.5-110.4,7.1c-20.5,0.5-81.8-7-104.8-14.2c-23-7.1-38.1-0.4-44.7-3.9c-6.7-3.4-20.3-21-15.6-74.9
	c4.7-53.9,43.7-159.5,45.7-167.2c2-7.7,29.1-77.1,48.5-98.7C152.3,283.3,193.8,276.8,217.2,297.8z"/>
<path class="st0" d="M217,294.1c17.1,15.4,17.6,58.6-14.6,125.4c-32.2,66.8-63.5,139.3-62.4,141.3c1.1,2,52.1,20.2,76.7,25.6
	c24.6,5.3,117.5,8.9,120.5,7.8c3-1.1,25.4-11.9,28.6-20.2c4.1-10.5,13-12.4,22.4-17.9c3.7-2.2,11.9-6.5,22.3-11.1
	c8.5-3.7,11.5-15.9,12.6-16.2c1.1-0.3,10.2,4.5,9,12.5c-1.5,10.5-10.8,21.7-20.3,24.7c-1.9,0.6-3,5.1-5.1,6
	c-2,0.9,41.2,5.3,46.6,10.2c4.1,3.7,10.2,12,2.2,20.9c-3.9,4.3-8.7,0.2-8.6,1.7c0.1,1.5,9.7,2.2,10,9.3c0.4,7.3-2.9,13.8-9.6,14.1
	c-6.6,0.4-27.6-5.2-27.2-3.5c0.5,1.7,22.5,8.7,23.7,11.9c1.6,4.4,1.2,11-4,14.3c-7.5,4.8-14.9-1.2-15.8,1.7
	c-2.3,7.2-8.2,11.6-24.3,12.5c-16.1,0.9-16.1,1.6-18.8,1c-2.7-0.6-28.6-4.2-33.7-7.7c-5.1-3.5-23.4-3.5-33.2-5.3
	c-9.8-1.8-89.8,6.5-110.4,7.1c-20.5,0.5-81.8-7-104.8-14.2c-23-7.1-37.9-2.4-44.6-5.8c-6.7-3.4-20.5-19-15.8-72.9
	c4.7-53.9,43.7-159.5,45.7-167.2c2-7.7,29.1-77.1,48.5-98.7C152.1,279.6,193.6,273.1,217,294.1z"/>
<path class="st14" d="M403.5,579.4c-4.5,5-5.8,6,0.6,11.8c6.4,5.7-5.6,5.1-5.3,14.2c0.3,9.1,12.2,7.9,16.8,7.7
	c4.6-0.2,8.9,5.6,9,8.1c0.1,2.5,18.2,3,22.4,2.8s5.1-3.9,5-6.7c-0.2-2.8-4.8-8.3-15.8-7.7c-11,0.6-17.4-2.3-17.6-5.9
	c-0.2-3.6-6.1-4.6-6.4-8.6c-0.2-4,4.3-0.6,7.9-0.8c3.6-0.2,9.4,5.6,17.6,5.1c8.2-0.4,14.2-1.5,13.9-7c-0.3-5.5-10.5-11.2-19.1-10.8
	C424,582,406.8,575.8,403.5,579.4z"/>
<path class="st14" d="M395.5,629.3c0.4,7.5,12.3,11.6,15.9,11.4c3.6-0.2,8.9,5.4,15.5,5c6.7-0.4,7.4-3.4,7.3-5.5
	c-0.1-2.1-6.8-9.9-15.1-9.5c-8.3,0.4-7.9-9.7-15.6-9.3C395.8,621.9,395.4,627.4,395.5,629.3z"/>
<circle class="st14" cx="394.8" cy="650.9" r="5"/>
<path class="st14" d="M425,535.3c-5,5.5-4.2,7.9-8.2,11.6c-4,3.7-7.8,11.8-12.8,11.6c-5-0.2-0.1-5.5-12.2-0.2
	c-12.1,5.3-9.4,7.4-9.4,8.5c0.1,2.7,3.4-2.3,9-2.6c9.2-0.5,14.8,0.6,14.9-0.4c0.5-4.4,1.7-3.3,2.8-3.4c1.1-0.1,11.3-5.8,12.6-8.1
	C424.1,547.9,427.2,532.8,425,535.3z"/>
<path class="st4" d="M388.3,663.7c-2.2-5.5-11.2-4.8-14.1-2.1C371.2,664.3,389.1,665.7,388.3,663.7z"/>
<path class="st4" d="M350.3,632.9c0.2,3.5,2.1,6.8,8.9,6.3c6.8-0.6,7.3-3.3,7.2-5.2C366.3,632.1,350.1,629.2,350.3,632.9z"/>
<path class="st4" d="M356.8,621.3c0.2,2.9,11.6,7.5,15.8,7.2c4.2-0.2,16.9-1.5,16.5-8c-0.4-6.5-11.9-4.3-15-4.1
	C371.1,616.6,356.6,617.1,356.8,621.3z"/>
<path class="st4" d="M374,568.9c-0.5-6,3-0.9,3.2,2.9s14.9-4.6,15.5,5.5c0.4,7-5.5,7.9-5.3,12.8c0.1,1.2,6.1,3.4,6.6,11.3
	c0.2,3.9-5.6,7.1-5.4,10.5c0.2,4.4,3,6.8,3.2,10.2c0.3,5.4-15.9,10.5-21.3,9.7c-7.2-1.1-29.9-9-30.8-25.3c-0.6-11.7,8.2-5.2,8-8.9
	c-0.2-3.7-6,0.2-6.1-1.9C341.5,593.6,374.6,575.4,374,568.9z"/>
<path class="st4" d="M372.1,612.7c2.3-0.1,7.9-3.8,11.1-4c3.2-0.2,9.1-3,8.8-9.7c-0.4-6.8-6.5-5.3-8.2-3.4c-1.6,1.8-5.8,0.3-9,0.5
	c-3.2,0.2,4.2-9,8.2-9.2c4.1-0.2,7.3-3.7,7.1-7.3c-0.2-3.6,0.5-7.4-7.8-7c-8.2,0.4-19.7,9.9-19.4,14.8c0.3,4.8,5.6,0.8,5.8,4.9
	c0.2,4.1-0.5,3.2-2.6,5.6c-2.1,2.3,1.1,9.4-4.7,9.7c-5.8,0.3-15.2,4.6-15.1,6.6C346.5,616.1,370.3,612.8,372.1,612.7z"/>
<path class="st3" d="M91.6,605.8c3.3,11.1,140.2,42,167.8,41.7c27.5-0.3,79.5,8,77.6-27.5C335.8,598.9,88.4,595.4,91.6,605.8z"/>
<path class="st2" d="M192.4,617.7c0.4,8,83.9,32.4,100.2,32.3c16.3-0.1,44.4,3.3,44.8-21.3C337.8,604.2,191.4,599.8,192.4,617.7z"/>
<path class="st2" d="M269.8,628.7c0.5,9.1,35.7,21.8,47.6,20c11.9-1.8,17.2-3.2,16.2-16.4c-1-13.2-16.4-13.2-25.8-12.4
	S269.4,622.4,269.8,628.7z"/>
<path class="st3" d="M100.9,545.4c18.9-0.5,98.2-126.9,103.4-154c5.2-27.1,29.7-75.9-29.1-83C140.4,304.2,83.2,545.9,100.9,545.4z"
	/>
<path class="st2" d="M138.5,477.9c7.7,2,56.6-69.9,61.5-85.4c4.9-15.5,16.8-41.3-6.5-49.2C170.3,335.3,121.2,473.3,138.5,477.9z"/>
<circle class="st15" cx="319.2" cy="636.4" r="7.5"/>
<path class="st2" d="M171.9,415.8c6,2.2,25.6-21.8,28.3-31.7c2.7-9.8,3.5-14.4-5.3-17.3c-8.8-2.9-13.8,9.1-16.3,16.7
	C176,391,167.8,414.3,171.9,415.8z"/>
<path class="st16" d="M139.3,559.3c-15.8,1-20.3,2.1-24.8,3.9c-4.5,1.8,23.3-0.2,24.3-1.3C140,560.8,139.3,559.3,139.3,559.3z"/>
<path class="st4" d="M416.5,545.2c-3.2,3.6-5.3,5.2-5.8,4c-0.4-1.2-1-2.7-2.9-1.5c-1.9,1.2-4,0.7-2.6,0.1c1.4-0.5,8.6-3.2,8.9-4.4
	c0.3-1.1,4.2-3,3.9-2C417.7,542.4,416.5,545.2,416.5,545.2z"/>
<path class="st8" d="M417.2,540.1c-0.1,1.6,2.3,2,4-0.6c1.7-2.7,5.8-11.3,6-12.3c0.2-1.2,0.4-3.6-0.8-3
	C425.3,524.7,417.4,536.3,417.2,540.1z"/>
<path class="st0" d="M362.2,60.2c13.5-1.2,22.4,16.1,24.8,38.6c0.6,5.4,1.9,8.2,3.7,15.3c1.2,4.8-2,11-4.1,14.1
	c-3.6,5.4-1.6,8.5-1.2,10.4c0.4,1.9,15.3,26.1,16.1,28.9c0.8,2.8-0.4,7.3-4.6,10.2c-4.2,2.9-8.8,4.3-10.1,4.6
	c-1.3,0.3-0.2,5,1.5,6.3c3.4,2.8,3.9,6.3,1.4,10c-2.4,3.7-7.7,6.4-8.3,8.6c-0.6,2.2,6.4,2.1,8.2,6.7c1.8,4.6,0.4,10.7-7.4,11.4
	c-1.4,0.1-4.6,2.3-5,7.9c-0.5,5.6-1.7,12.5-5.3,15.9c-3.6,3.4-16.5,3.4-21.4,1.2c-4.9-2.2-13.9-46.6-19-101.9
	C329.4,127,333.4,62.8,362.2,60.2z"/>
<g>
	<defs>
		<path id="SVGID_5_" d="M362.2,60.2c13.5-1.2,22.4,16.1,24.8,38.6c0.6,5.4,1.9,8.2,3.7,15.3c1.2,4.8-2,11-4.1,14.1
			c-3.6,5.4-1.6,8.5-1.2,10.4c0.4,1.9,15.3,26.1,16.1,28.9c0.8,2.8-0.4,7.3-4.6,10.2c-4.2,2.9-8.8,4.3-10.1,4.6
			c-1.3,0.3-0.2,5,1.5,6.3c3.4,2.8,3.9,6.3,1.4,10c-2.4,3.7-7.7,6.4-8.3,8.6c-0.6,2.2,6.4,2.1,8.2,6.7c1.8,4.6,0.4,10.7-7.4,11.4
			c-1.4,0.1-4.6,2.3-5,7.9c-0.5,5.6-1.7,12.5-5.3,15.9c-3.6,3.4-16.5,3.4-21.4,1.2c-4.9-2.2-13.9-46.6-19-101.9
			C329.4,127,333.4,62.8,362.2,60.2z"/>
	</defs>
	<clipPath id="SVGID_6_">
		<use xlink:href="#SVGID_5_"  style="overflow:visible;"/>
	</clipPath>
	<path class="st17" d="M382,130.9c-2.4,0.5-5.4,20.2-13.2,20.4c-7.8,0.2-7.2-4.8-13.8-3.9c-6.6,0.9-6,8.4-5.7,11.8
		c0.3,3.5,10.8,10.3,10.6,14.4c-0.2,4.1-7,26.2-2.2,31.7c4.8,5.5,6.4-3,10.8-3.4c4.3-0.3,5.9-11.9,10.5-12.3
		c4.5-0.4,27.6-7.7,30.3-17C411.9,163.3,386.1,130,382,130.9z"/>
	<path class="st17" d="M381.4,124.7c-2.4,0.5-5.5,22.9-13.3,23.1c-7.8,0.2-11.3-8.6-17.9-7.7c-6.6,0.9-7.7,9-7.4,12.4
		c0.3,3.5-0.8,17.3-1,21.4c-0.2,4.1,9.5,67.2,14.3,72.7c3.3,3.8,18.3,8.4,19.8-16c0.3-4.9-5.3-8.3-1.9-12.6
		c4.5-5.6,3.3-7.9-1.9-11.2c-3.8-2.5,33.6-28.4,36.3-37.7C411.1,159.9,385.5,123.8,381.4,124.7z"/>
</g>
<path class="st4" d="M376.7,180.9c-2.5-2.1-1.7,0.2-3.3,0.4c-1.6,0.1-4.4-1.1-2.8-1.2c1.6-0.1,3-0.2,2.4-7.1
	c-0.6-6.9,2.4-10,3.7-10.1c1.3-0.1,2.6,3.2,4.7,3c2.1-0.2,1.5-2,4.3-2.2c2.7-0.3,4,1.2,4.2,3c0.2,1.9-1.2,3.4-2.9,3.5
	c0,0-3.2-2.9-8.9,3.9c-4.5,5.4,20.1-7.3,20.8,0.5c0.4,4.5-11.9,5.3-12.3,8.3c-0.4,3,3.4,6.5,1.9,6.6c-3.6,0.3-13.5,12.7-13.6,11.8
	c-0.7-7.4,5.9-8.9,7.6-11c2.2-2.7,0.9-4.3,0.5-4.6C382.1,185,379.3,183,376.7,180.9z"/>
<path class="st1" d="M376.2,176.5c0.2,2.3,2.4,4,1.1,4.1c-1.3,0.1-2.5-1.7-2.7-4c-0.2-2.3,0.7-4.3,2-4.4
	C377.8,172.1,376,174.2,376.2,176.5z"/>
<path class="st8" d="M374.4,126.5c0.2,2.4,10.7-3,10.5-5.5c-0.2-2.1-2.2-1.3-2.5-1.6c-8.7-7.2-24.3-1.5-26.5,1
	c-1.1,1.3,0.4,0.1,7-0.6C365.9,119.6,373.7,119,374.4,126.5z"/>
<path class="st1" d="M374.4,126.5c0.2,2.4,10.7-3,10.5-5.5c-0.2-2.1-2.2-1.3-2.5-1.6c-8.7-7.2-24.3-1.5-26.5,1
	c-1.1,1.3,0.4,0.1,7-0.6C365.9,119.6,373.7,119,374.4,126.5z"/>
<path class="st18" d="M351,132.2c2.9-0.3,15,5.4,18.4,5.1c2.3-0.2,1.4,1.6,5.8,1.2c-0.5,0.6-3.6,2.9-8.7,3.4c-4.2,0.4,1,2.4-0.1,2.5
	c-1.8,0.2-3.8-0.1-6.9-2.7C357.4,139.9,353.4,134.2,351,132.2z"/>
<path class="st1" d="M392.7,177.9c0.5-0.6-1.6-3.9-5.3-3.5c-2.7,0.2-6.3,1.1-6.1,3.3c0.3,3.5,2.3-1.1,4.8-1.3
	C388.6,176.1,392,178.7,392.7,177.9z"/>
<path class="st19" d="M389.4,189.6c1.3,1.1,4,5.4-1,10.5c-4.9,5.1-7.2,5.8-7.1,7.2c0.1,1.2,3.5,1.5,7.5,4.9c3.6,3-0.4,10-1.3,11.1
	c-0.2,0.3-0.6-4.1-15.6-16.6C371.1,205.9,387.1,187.7,389.4,189.6z"/>
<path class="st8" d="M372.2,206.8c0.9,0.7,6.1,4.8,7,5.5c1.9,1.6,8.4,10.2,8.4,10.9c0,0,3.3-2.8,2.9-6.5c-0.1-0.7-0.4-3.7-2.2-5.2
	C382,206.2,372,206.7,372.2,206.8z"/>
<path class="st8" d="M389.4,189.6c-2.5-2.1-17.6,14.8-17.4,17c0.1,1.3,5.7-2.9,7.9-3.9c4.7-2.1,6-2.6,8.4-2.9
	C390,199.7,393.7,193.2,389.4,189.6z"/>
<path class="st18" d="M388.8,193.5c0.2,2.5-1.8,6.3-0.1,6.2c1.2-0.1-1.1,0.6-2.9,0.8c-4.5,0.4-9.8,5.9-12.5,6.2
	c0.2,1.7,8.9-0.2,13.5,3.7c1.9,1.6,3.6,2.5,3.9,6.1c0.1,0.9-0.5-0.3-2-1.6c-2.7-2.3-4.4-2.9-8.4-3.6c-4-0.8-8.2-3.8-8.3-4.9
	C372,206.3,388.6,191.1,388.8,193.5z"/>
<path class="st20" d="M391.9,176.5c0,0.3-1,0.9-1.7,0.3c-1.2-1-3.3-0.8-3.3-1.2c0-0.3,1.4-0.5,1.9-0.5
	C389.4,175,391.8,175.7,391.9,176.5z"/>
<path class="st2" d="M397.9,163.6c-0.8,0.6,2.9,6,2.8,4.1C400.6,165.8,399,162.8,397.9,163.6z"/>
<path class="st2" d="M387.5,145.8c-1,0.1,5.1,9.1,4.9,7.2C392.3,152.3,388.2,145.7,387.5,145.8z"/>
<path class="st2" d="M394.3,154.1c-0.3,0.2,2,3.7,2,2.9C396.2,156.3,394.7,153.8,394.3,154.1z"/>
<path class="st3" d="M371.6,75.3c-4.9,0.4-2.7,13.6-2,22.1c0.7,8.5,2.9,4.3,3.2,7.8c0.3,3.4-6.5,5.5-6.4,7.5c0.2,2,7.5-0.6,12.8-1
	c5.3-0.4,6.8,3.7,7.1,7.2c0.3,3.4,0.8,2,1.8,1.6c4.8-2,0.8-18.4-2.1-26.1C383.2,86.3,375.3,75,371.6,75.3z"/>
<path class="st3" d="M373.3,242.1c0.1,1.2-5.2,0.4-7.7,0.6c-2.6,0.2-5.7-0.7-5.8-1.8c-0.1-1.2,6.3-6.2,8.9-6.4
	C376.9,233.8,372.6,233.8,373.3,242.1z"/>
<path class="st1" d="M218.7,406.2c0-54.2-0.5-99.7-26.5-96.7c-30.8,3.6-14.6,53.5-58.3,58.6c-32.9,3.8-51.1,41.5-51.4,40.7
	c-4.1-10.9-14-42.1,30.1-97.9c0,0,107.4-49.6,118.3-11.2C241.9,338.1,218.7,459.7,218.7,406.2z"/>
<path class="st4" d="M335.2,161c3.8,25.3,17.3,67.1,21.8,105.7c4,34.5,9.2,83.2-8,92.8c-28,15.7-26.2,44.7-49.5,74.3
	c-15.8,20-25.6,43-21.6,59.5c3.6,14.8-23.8-18.5-22.3-29C257.3,453.8,334.1,153.1,335.2,161z"/>
<path class="st1" d="M340.3,278.1c17.1-9.6,25.1-16.2,11.4-69.1c-9.7-37.6-8.6-34.3-11.6-59.7C334,96.9,350,39.8,375.7,67.5
	c-0.1-18.8-7.5-10.7-31.7-9.5c-24.3,1.3-27.7,99.9-19.6,119.8C332.5,197.8,340.3,278.1,340.3,278.1z"/>
<path class="st8" d="M377.7,69.5c-1.7-14.6-3.9-55.6-29.7-52.1c-10.7,1.5-23.7,0-38.9-4.9C293.2,7.4,251-1.6,205.3,56.3
	c-27,34.2-53.8,193.5-96.4,247.4c-44.1,55.8-44,102-27.7,102c0.9,0,16.1-41,49-44.8c43.6-5.1,27.5-55,58.3-58.6
	c26-3,34.7,43.1,26.5,96.7c-8.5,55.5,17.7,93.6,42.5,113.2c12.5,9.9,50.6,20.1,62.6,4.9c-28.7,3.4-39.5-8.9-42.6-35.5
	c-2-16.9,5.8-39.5,21.6-59.5c23.3-29.5,21.5-58.6,49.5-74.3c17.1-9.6,12-58.3,8-92.8c-4.5-38.5-18.9-80.3-21.8-105.7
	C328.7,96.9,352,41.8,377.7,69.5z"/>
<path class="st1" d="M327.2,517"/>
<path class="st3" d="M224.8,40.2c7-6.8,26.7-15.1,23.9-11.9c-2.8,3.3-16.5,22.6-13.2,21.4c3.3-1.2,20.6-4.4,20.1-1.7
	c-0.5,2.7-48.3,42.4-49.8,40.2c-1.5-2.2,6.2-23.7,2-20.2C195.7,78.1,221.1,43.8,224.8,40.2z"/>
<path class="st3" d="M225.8,54.6c-8.1,6.6-5.6,9.1-8.7,11.4c-3.1,2.3-3.5,8.6,0.5,5.1c4-3.5,8.8-9.9,11-11.6
	c2.1-1.6,6.3-9.3,2.4-7.1C226.9,54.7,225.8,54.6,225.8,54.6z"/>
<path class="st3" d="M343.3,36.6c-9.5,0.4-8.6,35.9-8,44.8c0.6,8.9,3.8-5.9,4.7-23.1C340.9,41,347.1,36.4,343.3,36.6z"/>
<path class="st21" d="M314.6,250.7c0.2,38.8-13.3,99.2-18.8,99.9c-5.5,0.7,14-40.7-5.8-108.2c-1.6-5.4,7.3-43.6,12.9-44.2
	C308.4,197.6,314.5,245.2,314.6,250.7z"/>
<path class="st21" d="M343.6,286.5c-5.3,27.6-23,68.7-26.8,68.4c-3.8-0.3,15.2-27,11.3-77.8c-0.3-4,11.1-30,14.9-29.6
	C346.9,247.8,344.4,282.5,343.6,286.5z"/>
<path class="st21" d="M214.8,174.2c-5.2,12-16.1,29.6-17.9,29c-1.8-0.6,9.1-29.4,9.7-31.2c0.6-1.8,10.3-13.6,12.1-13
	C220.5,159.6,215.5,172.4,214.8,174.2z"/>
<path class="st21" d="M230.4,173.2c-5.2,12-17.8,28.5-19.6,27.9c-1.8-0.6,10.6-28.6,11.2-30.4c0.6-1.8,25-40.7,26.8-40.1
	C250.6,131.2,231.2,171.5,230.4,173.2z"/>
<path class="st4" d="M174.9,271.5c19.2-7.7,74.2-87.2,79.1-83.1c4.9,4.1,33,96.1,27.6,112.6c-5.4,16.5-19.4-17.2-20.5-1
	c-1.1,16.1,33.7,62.5,7.6,85.7c-41.9,37.2-11.6,98-13,107.9c0,0-29.5-26.3-32.7-65.5c-1.1-13.6,6.3-56.4,8.8-75.2
	C240.6,287.4,170.8,273.1,174.9,271.5z"/>
<path class="st4" d="M334.5,25.3c12.3,10.3-29.4,36.5-30.7,54.4c-1.3,17.9,25.6,30.5,28,77.2c2.4,46.7-16.3,42-12.3,74.3
	c4,32.3,0.5,65.8-7.1,80.2c13-65-3.3-121.4-1-139.4c2.2-18-4.9-40.3-19.4-56.2c-14.5-15.9-38.1-18.9-28.4-38.1
	c9.7-19.2-0.2-49.5,22.5-58.4C308.8,10.4,327.6,19.5,334.5,25.3z"/>
<path class="st4" d="M189.1,117.2c74.2-75,40.7,2.8,36.1,18.3c-4.6,15.4-56.3,110.8-84.6,144.8c-28.3,33.9-45.3,64.4-47.3,80.1
	c-4.8-8.7,29.3-73.1,41.5-85.8C146.9,261.8,185.6,120.6,189.1,117.2z"/>
</svg>
